<mxfile host="app.diagrams.net" modified="2024-06-01T12:43:51.481Z" agent="Mozilla/5.0 (Windows NT 10.0; Win64; x64) AppleWebKit/537.36 (KHTML, like Gecko) Chrome/125.0.0.0 Safari/537.36" etag="We8w-xIHQWfkMVxnJ9Av" version="24.4.13" type="github">
  <diagram name="Page-1" id="kKlavzkdh3ufGZ4QZMoK">
    <mxGraphModel dx="1400" dy="985" grid="1" gridSize="10" guides="1" tooltips="1" connect="1" arrows="1" fold="1" page="1" pageScale="1" pageWidth="850" pageHeight="1100" math="0" shadow="0">
      <root>
        <mxCell id="0" />
        <mxCell id="1" parent="0" />
        <mxCell id="RC-xSqIN6y6w9XRlldhF-3" style="edgeStyle=orthogonalEdgeStyle;rounded=0;orthogonalLoop=1;jettySize=auto;html=1;exitX=1;exitY=0.5;exitDx=0;exitDy=0;entryX=0;entryY=0.5;entryDx=0;entryDy=0;" edge="1" parent="1" source="RC-xSqIN6y6w9XRlldhF-1" target="RC-xSqIN6y6w9XRlldhF-2">
          <mxGeometry relative="1" as="geometry" />
        </mxCell>
        <mxCell id="RC-xSqIN6y6w9XRlldhF-1" value="&lt;font style=&quot;font-size: 16px;&quot; data-font-src=&quot;https://fonts.googleapis.com/css?family=Roboto&quot; face=&quot;Roboto&quot;&gt;&lt;b style=&quot;font-size: 16px;&quot;&gt;TEST&lt;/b&gt;&lt;/font&gt;&lt;div style=&quot;font-size: 16px;&quot;&gt;&lt;font style=&quot;font-size: 16px;&quot; face=&quot;Roboto&quot; data-font-src=&quot;https://fonts.googleapis.com/css?family=Roboto&quot;&gt;&lt;b style=&quot;font-size: 16px;&quot;&gt;Diagram&lt;/b&gt;&lt;/font&gt;&lt;/div&gt;" style="rounded=1;whiteSpace=wrap;html=1;fillColor=#dae8fc;strokeColor=#6c8ebf;gradientColor=#45B5FF;dashed=1;strokeWidth=2;perimeterSpacing=2;glass=1;shadow=0;fontFamily=Roboto;fontSource=https%3A%2F%2Ffonts.googleapis.com%2Fcss%3Ffamily%3DRoboto;fontSize=16;" vertex="1" parent="1">
          <mxGeometry x="160" y="210" width="120" height="60" as="geometry" />
        </mxCell>
        <mxCell id="RC-xSqIN6y6w9XRlldhF-2" value="circle" style="ellipse;whiteSpace=wrap;html=1;fontFamily=Roboto;fontSource=https%3A%2F%2Ffonts.googleapis.com%2Fcss%3Ffamily%3DRoboto;fontSize=17;fontStyle=1;gradientColor=#D5E8D4;gradientDirection=east;strokeWidth=2;dashed=1;perimeterSpacing=0;" vertex="1" parent="1">
          <mxGeometry x="360" y="155" width="170" height="170" as="geometry" />
        </mxCell>
      </root>
    </mxGraphModel>
  </diagram>
</mxfile>
